<?xml version="1.0" encoding="utf-8"?>
<!-- Generator: Adobe Illustrator 24.3.0, SVG Export Plug-In . SVG Version: 6.00 Build 0)  -->
<svg version="1.1" xmlns="http://www.w3.org/2000/svg" xmlns:xlink="http://www.w3.org/1999/xlink" x="0px" y="0px" viewBox="0 0 612 550.4" style="enable-background:new 0 0 612 550.4;" xml:space="preserve">
<style type="text/css">
	.st5{opacity:0.99;fill:#2D2724;}
</style>
<g id="Layer_6">
	<g class="st4">
		<path class="st5" d="M95.9,212.1c0.7,0,1.2,0.5,1.2,1.2v31.8c0,0.7-0.5,1.2-1.2,1.2H82.4c-0.7,0-1.2,0.5-1.2,1.2v24.5
			c0,0.7,0.5,1.2,1.2,1.2h32.8c4.8,0,8.6-3.8,8.6-8.6v-1.2c0-0.7,0.5-1.2,1.2-1.2h7.3c0.7,0,1.2,0.5,1.2,1.2v42.8
			c0,0.7-0.5,1.2-1.2,1.2H56.7c-0.7,0-1.2-0.5-1.2-1.2v-31.8c0-0.7,0.5-1.2,1.2-1.2h13.5c0.7,0,1.2-0.5,1.2-1.2v-24.5
			c0-0.7-0.5-1.2-1.2-1.2H56.7c-0.7,0-1.2-0.5-1.2-1.2v-31.8c0-0.7,0.5-1.2,1.2-1.2H95.9z"/>
		<path class="st5" d="M232.2,273.3c0.7,0,1.2,0.5,1.2,1.2v31.8c0,0.7-0.5,1.2-1.2,1.2H193c-0.7,0-1.2-0.5-1.2-1.2v-31.8
			c0-0.7,0.5-1.2,1.2-1.2h10.2c0.5,0,0.8-0.3,0.8-0.5c0-0.4-0.3-0.8-0.3-0.8l-3.1-5c-0.7-1.1-1.1-1.6-1.8-1.6h-26.7
			c-0.7,0-1.1,0.5-1.8,1.6l-3.3,5.3c0,0-0.3,0.4-0.3,0.8c0,0.3,0.4,0.3,1,0.3h12.9c0.7,0,1.2,0.5,1.2,1.2v31.8
			c0,0.7-0.5,1.2-1.2,1.2h-39.2c-0.7,0-1.2-0.5-1.2-1.2v-31.8c0-0.7,0.5-1.2,1.2-1.2h13.7c0.7,0,1.1-0.5,1.8-1.6l15.2-23.9
			c0,0,0.3-0.4,0.3-0.8c0-0.3-0.3-0.5-0.8-0.5h-4.5c-0.7,0-1.2-0.5-1.2-1.2v-31.8c0-0.7,0.5-1.2,1.2-1.2h39.2c0.7,0,1.2,0.5,1.2,1.2
			v31.8c0,0.7-0.5,1.2-1.2,1.2h-2.9c-0.5,0-0.8,0.3-0.8,0.5c0,0.4,0.3,0.8,0.3,0.8l15.2,23.9c0.7,1.1,1.8,1.6,2.4,1.6H232.2z
			 M177,256.6c0,0-0.3,0.4-0.3,0.8c0,0.3,0.3,0.5,0.8,0.5h16.1c0.5,0,0.8-0.3,0.8-0.5c0-0.4-0.3-0.8-0.3-0.8l-5.4-8.6
			c-0.7-1.1-1.1-1.6-1.8-1.6H184c-0.7,0-1.1,0.5-1.8,1.6L177,256.6z"/>
		<path class="st5" d="M292.6,212.1c16.2,0,29.4,13.2,29.4,29.4v36.7c0,16.2-13.2,29.4-29.4,29.4h-50.9c-0.7,0-1.2-0.5-1.2-1.2
			v-31.8c0-0.7,0.5-1.2,1.2-1.2h13.5c0.7,0,1.2-0.5,1.2-1.2v-24.5c0-0.7-0.5-1.2-1.2-1.2h-13.5c-0.7,0-1.2-0.5-1.2-1.2v-31.8
			c0-0.7,0.5-1.2,1.2-1.2H292.6z M312.2,255c0-4.8-3.8-8.6-8.6-8.6h-36.2c-0.7,0-1.2,0.5-1.2,1.2v24.5c0,0.7,0.5,1.2,1.2,1.2h36.2
			c4.8,0,8.6-3.8,8.6-8.6V255z"/>
		<path class="st5" d="M354.1,307.6c-0.7,0-1.2-0.5-1.2-1.2v-31.8c0-0.7,0.5-1.2,1.2-1.2h13.5c0.7,0,1.2-0.5,1.2-1.2v-8
			c0-0.8-0.7-1.4-1.2-1.6l-28.7-15.9c-0.3-0.1-0.3-0.1-0.8-0.1h-8.7c-0.7,0-1.2-0.5-1.2-1.2v-31.8c0-0.7,0.5-1.2,1.2-1.2h39.2
			c0.7,0,1.2,0.5,1.2,1.2v31.8c0,0.7-0.5,1.2-1.2,1.2h-6.8c-0.5,0-0.8,0.3-0.8,0.5c0,0.5,0.4,0.8,1,1.1l12.2,6.7
			c0.4,0.3,1.5,0.8,2,0.8c1,0,1.6-0.4,1.9-0.5l13.1-6.9c0.3-0.1,1-0.5,1-1.1c0-0.3-0.3-0.5-0.8-0.5h-10.5c-0.7,0-1.2-0.5-1.2-1.2
			v-31.8c0-0.7,0.5-1.2,1.2-1.2h39.2c0.7,0,1.2,0.5,1.2,1.2v31.8c0,0.7-0.5,1.2-1.2,1.2h-12.1c-0.3,0-0.5,0-0.8,0.1l-27.5,14.8
			c-0.4,0.3-1,0.7-1,1.4v9.4c0,0.7,0.5,1.2,1.2,1.2h13.5c0.7,0,1.2,0.5,1.2,1.2v31.8c0,0.7-0.5,1.2-1.2,1.2H354.1z"/>
		<path class="st5" d="M478.7,254.3c0.7,0,1.2,0.5,1.2,1.2v7.3c0,0.7-0.5,1.2-1.2,1.2h-55.8c-0.7,0-1.2-0.5-1.2-1.2v-7.3
			c0-0.7,0.5-1.2,1.2-1.2H478.7z"/>
		<path class="st5" d="M526.1,210.5c16.2,0,29.4,13.2,29.4,29.4v40c0,16.2-13.2,29.4-29.4,29.4h-10.1c-16.2,0-29.4-13.2-29.4-29.4
			v-40c0-16.2,13.2-29.4,29.4-29.4H526.1z M506.5,246.1c-6,0-10.9,4.9-10.9,10.9v5.7c0,6,4.9,10.9,10.9,10.9h29.4
			c6,0,10.9-4.9,10.9-10.9V257c0-6-4.9-10.9-10.9-10.9H506.5z"/>
	</g>
	<g class="st4">
		<path class="st5" d="M82.5,394.1c0-1.1,0.9-2,2-2h9.6c1.1,0,2,0.9,2,2v2.7c0,1.1-0.1,2.9-0.3,4c0,0-1.2,8.4-4,11.4
			c-2.9,3.1-7,4.6-12.5,4.6c-5.6,0-10-1.6-13.1-4.7c-3.1-3.1-4.4-11.3-4.4-11.3c-0.2-1.1-0.3-2.9-0.3-4v-24.5c0-1.1,0.1-2.9,0.3-4
			c0,0,1.3-8.2,4.4-11.3c3.1-3.1,7.5-4.7,13.1-4.7c5.5,0,9.7,1.5,12.5,4.6c2.9,3.1,4,11.4,4,11.4c0.2,1.1,0.3,2.9,0.3,4v2
			c0,1.1-0.9,2-2,2h-9.6c-1.1,0-2-0.9-2-2v-3.1c0-1.1-0.1-2.9-0.1-4c0,0-0.1-1.5-0.6-2.5c-0.5-1-1.4-1.5-2.5-1.5
			c-1.1,0-2,0.5-2.5,1.5c-0.6,1-0.7,2.5-0.7,2.5c-0.1,1.1-0.2,2.9-0.2,4v26.8c0,1.1,0.1,2.9,0.2,4c0,0,0.1,1.4,0.7,2.4
			c0.6,1,1.4,1.5,2.5,1.5c1,0,1.9-0.5,2.4-1.5c0.6-1,0.7-2.4,0.7-2.4c0.1-1.1,0.2-2.9,0.2-4V394.1z"/>
		<path class="st5" d="M118.1,352.4c5.6,0,9.9,1.6,13,4.7c3.1,3.1,4.4,11.3,4.4,11.3c0.2,1.1,0.3,2.9,0.3,4v24.5
			c0,1.1-0.1,2.9-0.3,4c0,0-1.3,8.2-4.4,11.3c-3.1,3.1-7.4,4.7-13,4.7c-5.6,0-10-1.6-13.1-4.7c-3.1-3.1-4.4-11.3-4.4-11.3
			c-0.2-1.1-0.3-2.9-0.3-4v-24.5c0-1.1,0.1-2.9,0.3-4c0,0,1.3-8.2,4.4-11.3C108,354,112.4,352.4,118.1,352.4z M114.8,367.2
			c-0.1,1.1-0.2,2.9-0.2,4v26.9c0,1.1,0.1,2.9,0.2,4c0,0,0.1,1.4,0.7,2.4c0.6,1,1.4,1.5,2.5,1.5c1,0,1.9-0.5,2.4-1.5
			c0.6-1,0.7-2.4,0.7-2.4c0.1-1.1,0.2-2.9,0.2-4v-26.9c0-1.1-0.1-2.9-0.2-4c0,0-0.1-1.4-0.7-2.4c-0.6-1-1.4-1.5-2.4-1.5
			c-1.1,0-2,0.5-2.5,1.5C115,365.8,114.8,367.2,114.8,367.2z"/>
		<path class="st5" d="M140.6,400.8c-0.2-1.1-0.3-2.9-0.3-4v-68.4c0-1.1,0.9-2,2-2h10.4c1.1,0,2,0.9,2,2v69.7c0,1.1,0.1,2.9,0.2,4
			c0,0,0.1,1.4,0.6,2.4c0.5,1,1.3,1.5,2.4,1.5c1,0,1.8-0.5,2.3-1.4c0.5-0.9,0.6-2.4,0.6-2.4c0.1-1.1,0.1-2.9,0.1-4v-69.7
			c0-1.1,0.9-2,2-2h10.4c1.1,0,2,0.9,2,2v68.4c0,1.1-0.1,2.9-0.3,4c0,0-1.2,8.2-4.2,11.3c-3,3.1-7.3,4.7-12.9,4.7
			c-5.6,0-9.9-1.6-12.9-4.7C141.8,409,140.6,400.8,140.6,400.8z"/>
		<path class="st5" d="M180.2,328.4c0-1.1,0.9-2,2-2h19.4c1.1,0,2.2,0.9,2.5,1.9l10.6,41c0.3,1.1,0.6,1.9,0.7,1.9
			c0.1,0,0.2-0.9,0.2-2v-40.9c0-1.1,0.9-2,2-2h8.7c1.1,0,2,0.9,2,2v85.5c0,1.1-0.9,2-2,2H217c-1.1,0-2.2-0.9-2.6-1.9l-14.3-48.5
			c-0.3-1.1-0.6-1.9-0.7-1.9c-0.1,0-0.2,0.9-0.2,2v48.4c0,1.1-0.9,2-2,2h-15c-1.1,0-2-0.9-2-2V328.4z"/>
		<path class="st5" d="M263.8,326.4c1.1,0,2,0.9,2,2v7.9c0,1.1-0.9,2-2,2h-5.6c-1.1,0-2,0.9-2,2v73.6c0,1.1-0.9,2-2,2h-10.4
			c-1.1,0-2-0.9-2-2v-73.6c0-1.1-0.9-2-2-2h-5.6c-1.1,0-2-0.9-2-2v-7.9c0-1.1,0.9-2,2-2H263.8z"/>
		<path class="st5" d="M290.8,408c0-1.1-0.1-2.9-0.1-4v-19.5c0-1.1-0.1-2.9-0.2-4c0,0-0.1-1.5-0.7-2.5c-0.6-1-0.6-1-0.6-1
			c-1.1-0.3-2.6-0.5-3.5-0.5s-1.6,0.9-1.6,2v35.4c0,1.1-0.9,2-2,2h-10.5c-1.1,0-2-0.9-2-2v-85.5c0-1.1,0.9-2,2-2h14.9
			c1.1,0,2.9,0.1,4,0.3c0,0,7.3,1.2,10.2,4.2c2.9,3,4.1,10.5,4.1,10.5c0.2,1.1,0.3,2.9,0.3,4V357c0,1.1-0.1,2.9-0.2,4
			c0,0-0.4,3.5-1.5,5.4c-1.1,1.9-3.7,3.5-3.7,3.5c-0.9,0.6-0.9,1.6,0,2.2c0,0,2.5,1.7,3.7,3.6c1.1,1.9,1.5,5.5,1.5,5.5
			c0.1,1.1,0.2,2.9,0.2,4V404c0,1.1,0,2.9,0.1,4c0,0,0.1,1.6,0.3,3.3c0.3,1.7,0.7,2.8,0.7,2.8c0.4,1-0.2,1.9-1.3,1.9h-10.5
			c-1.1,0-2.3-0.8-2.7-1.9c0,0-0.3-0.6-0.5-2.3C290.8,410.2,290.8,408,290.8,408z M290.5,361.5c0.1-1.1,0.2-2.9,0.2-4v-12.2
			c0-1.1-0.1-2.9-0.2-4c0,0-0.1-1.7-0.7-2.7c-0.6-1-0.6-1-0.6-1c-1.1-0.3-2.6-0.5-3.5-0.5s-1.6,0.9-1.6,2v24.4c0,1.1,0.7,2,1.6,2
			s2.4-0.2,3.5-0.5c0,0,0,0,0.6-1C290.4,363.1,290.5,361.5,290.5,361.5z"/>
		<path class="st5" d="M340.7,326.4c1.1,0,1.8,0.9,1.6,2l-10.5,55.1c-0.2,1.1-0.4,2.9-0.4,3.9v26.5c0,1.1-0.9,2-2,2h-10.3
			c-1.1,0-2-0.9-2-2v-26.5c0-1.1-0.2-2.9-0.4-3.9l-10.5-55.1c-0.2-1.1,0.5-2,1.6-2h10.4c1.1,0,2.1,0.9,2.2,2l3.8,30.1
			c0.1,1.1,0.3,2,0.4,2s0.3-0.9,0.4-2l3.6-30.1c0.1-1.1,1.1-2,2.2-2H340.7z"/>
		<path class="st5" d="M394.3,408c0-1.1-0.1-2.9-0.1-4v-19.5c0-1.1-0.1-2.9-0.2-4c0,0-0.1-1.5-0.7-2.5c-0.6-1-0.6-1-0.6-1
			c-1.1-0.3-2.6-0.5-3.5-0.5c-0.9,0-1.6,0.9-1.6,2v35.4c0,1.1-0.9,2-2,2h-10.5c-1.1,0-2-0.9-2-2v-85.5c0-1.1,0.9-2,2-2h14.9
			c1.1,0,2.9,0.1,4,0.3c0,0,7.3,1.2,10.2,4.2c2.9,3,4.1,10.5,4.1,10.5c0.2,1.1,0.3,2.9,0.3,4V357c0,1.1-0.1,2.9-0.2,4
			c0,0-0.4,3.5-1.5,5.4c-1.1,1.9-3.7,3.5-3.7,3.5c-0.9,0.6-0.9,1.6,0,2.2c0,0,2.5,1.7,3.7,3.6c1.1,1.9,1.5,5.5,1.5,5.5
			c0.1,1.1,0.2,2.9,0.2,4V404c0,1.1,0,2.9,0.1,4c0,0,0.1,1.6,0.3,3.3c0.3,1.7,0.7,2.8,0.7,2.8c0.4,1-0.2,1.9-1.3,1.9h-10.5
			c-1.1,0-2.3-0.8-2.7-1.9c0,0-0.3-0.6-0.5-2.3C394.4,410.2,394.3,408,394.3,408z M394.1,361.5c0.1-1.1,0.2-2.9,0.2-4v-12.2
			c0-1.1-0.1-2.9-0.2-4c0,0-0.1-1.7-0.7-2.7c-0.6-1-0.6-1-0.6-1c-1.1-0.3-2.6-0.5-3.5-0.5c-0.9,0-1.6,0.9-1.6,2v24.4
			c0,1.1,0.7,2,1.6,2c0.9,0,2.4-0.2,3.5-0.5c0,0,0,0,0.6-1C394,363.1,394.1,361.5,394.1,361.5z"/>
		<path class="st5" d="M413.5,415.9c-1.1,0-1.9-0.9-1.8-2l10.3-85.5c0.1-1.1,1.1-2,2.2-2H437c1.1,0,2.1,0.9,2.2,2l10.3,85.5
			c0.1,1.1-0.7,2-1.8,2h-10.2c-1.1,0-2.1-0.9-2.2-2l-1.3-15.5c-0.1-1.1-1.1-2-2.2-2h-3.5c-1.1,0-2.1,0.9-2.2,2l-1.3,15.5
			c-0.1,1.1-1.1,2-2.2,2H413.5z M430.2,350.7c-0.1,0-0.2,0.9-0.3,2l-0.8,11.5c-0.1,1.1-0.2,2.9-0.3,4l-1.1,14.4
			c-0.1,1.1,0.7,2,1.8,2h1.6c1.1,0,1.9-0.9,1.8-2l-1.2-14.4c-0.1-1.1-0.2-2.9-0.3-4l-0.8-11.5C430.5,351.6,430.3,350.7,430.2,350.7z
			"/>
		<path class="st5" d="M499,341.4c0.2,1.1,0.4,2.8,0.4,3.9v51.8c0,1.1-0.2,2.9-0.4,3.9c0,0-1.5,7.5-5.3,10.4
			c-3.8,2.9-14.1,4.2-14.1,4.2c-1.1,0.1-2.9,0.2-4,0.2h-20.8c-1.1,0-2-0.9-2-2v-85.5c0-1.1,0.9-2,2-2h20.8c1.1,0,2.9,0.1,4,0.2
			c0,0,10.2,1.3,14.1,4.2C497.5,333.9,499,341.4,499,341.4z M473.9,337.2c-1.1,0-2,0.9-2,2v64c0,1.1,0.9,2,2,2h0.1
			c1.1,0,2.9-0.2,3.9-0.4c0,0,0.6-0.1,1.4-1.1c0.7-1,0.9-2.7,0.9-2.7c0.1-1.1,0.2-2.9,0.2-4v-51.6c0-1.1-0.1-2.9-0.2-4
			c0,0-0.2-1.7-0.9-2.7c-0.7-1-1.4-1.1-1.4-1.1c-1.1-0.2-2.9-0.4-3.9-0.4H473.9z"/>
		<path class="st5" d="M521.1,413.9c0,1.1-0.9,2-2,2h-10.5c-1.1,0-2-0.9-2-2v-85.5c0-1.1,0.9-2,2-2h10.5c1.1,0,2,0.9,2,2V413.9z"/>
		<path class="st5" d="M543.8,325.5c5.6,0,9.9,1.6,13,4.7c3.1,3.1,4.4,11.3,4.4,11.3c0.2,1.1,0.3,2.9,0.3,4v51.4
			c0,1.1-0.1,2.9-0.3,4c0,0-1.3,8.2-4.4,11.3c-3.1,3.1-7.4,4.7-13,4.7c-5.6,0-10-1.6-13.1-4.7c-3.1-3.1-4.4-11.3-4.4-11.3
			c-0.2-1.1-0.3-2.9-0.3-4v-51.4c0-1.1,0.1-2.9,0.3-4c0,0,1.3-8.2,4.4-11.3C533.8,327,538.2,325.5,543.8,325.5z M540.6,340.3
			c-0.1,1.1-0.2,2.9-0.2,4v53.8c0,1.1,0.1,2.9,0.2,4c0,0,0.1,1.4,0.7,2.4c0.6,1,1.4,1.5,2.5,1.5c1,0,1.9-0.5,2.4-1.5
			c0.6-1,0.7-2.4,0.7-2.4c0.1-1.1,0.2-2.9,0.2-4v-53.8c0-1.1-0.1-2.9-0.2-4c0,0-0.1-1.4-0.7-2.4c-0.6-1-1.4-1.5-2.4-1.5
			c-1.1,0-2,0.5-2.5,1.5C540.7,338.9,540.6,340.3,540.6,340.3z"/>
		<g>
			<g>
				<path class="st5" d="M78.4,326.4c11.3,0,16.9,2.7,16.9,8.2c0,5.5-5.6,8.2-16.9,8.2c-11.3,0-16.9-2.7-16.9-8.2
					C61.5,329.1,67.1,326.4,78.4,326.4z M72.3,329.7c-0.7,0.9-1.2,2.5-1.2,3.6v2.6c0,1.1,0.5,2.7,1.2,3.6c0,0,1.2,1.7,6.1,1.7
					c4.8,0,6.1-1.7,6.1-1.7c0.7-0.9,1.2-2.5,1.2-3.6v-2.6c0-1.1-0.5-2.7-1.2-3.6c0,0-1.2-1.7-6.1-1.7
					C73.6,328.1,72.3,329.7,72.3,329.7z"/>
			</g>
			<g>
				<path class="st5" d="M100.2,328.4c0-1.1,0.9-2,2-2h8.1c1.1,0,2.8,0.4,3.8,0.9l13.3,6.4c1,0.5,1.8,0,1.8-1.1v-4.2
					c0-1.1,0.9-2,2-2h0.9c1.1,0,2,0.9,2,2l0,12.4c0,1.1-0.9,2-2,2h-3.3c-1.1,0-2.8-0.4-3.7-1l-11-6.2c-1-0.5-1.7-0.1-1.7,1v4.2
					c0,1.1-0.9,2-2,2h-8.1c-1.1,0-2-0.9-2-2V328.4z"/>
			</g>
		</g>
		<path class="st5" d="M135.7,348.1c0,0.4-0.9,0.8-2,0.8H64.6c-1.1,0-2-0.3-2-0.8c0-0.4,0.9-0.8,2-0.8h69.2
			C134.8,347.4,135.7,347.7,135.7,348.1z"/>
	</g>
	<g class="st4">
		<g>
			<path class="st5" d="M78.5,123.5c1.1,0,2,0.9,2,2v4.4c0,1.1-0.9,2-2,2h-2.7c-1.1,0-2,0.9-2,2v51.2c0,1.1-0.9,2-2,2h-6.2
				c-1.1,0-2-0.9-2-2V134c0-1.1-0.9-2-2-2h-2.7c-1.1,0-2-0.9-2-2v-4.4c0-1.1,0.9-2,2-2H78.5z"/>
			<path class="st5" d="M121.4,185.2c0,1.1-0.9,2-2,2h-10.9c-1.1,0-2-0.9-2-2v-23.7c0-1.1-0.9-2-2-2h-4c-1.1,0-2,0.9-2,2v23.7
				c0,1.1-0.9,2-2,2h-11c-1.1,0-2-0.9-2-2v-59.6c0-1.1,0.9-2,2-2h11c1.1,0,2,0.9,2,2v23.1c0,1.1,0.9,2,2,2h4c1.1,0,2-0.9,2-2v-23.1
				c0-1.1,0.9-2,2-2h10.9c1.1,0,2,0.9,2,2V185.2z"/>
			<path class="st5" d="M146.3,185.2c0,1.1-0.9,2-2,2h-15.9c-1.1,0-2-0.9-2-2v-59.6c0-1.1,0.9-2,2-2h15.9c1.1,0,2,0.9,2,2v4.4
				c0,1.1-0.9,2-2,2h-5.7c-1.1,0-2,0.9-2,2v14.8c0,1.1,0.9,2,2,2h4.6c1.1,0,2,0.9,2,2v4.4c0,1.1-0.9,2-2,2h-4.6c-1.1,0-2,0.9-2,2
				v15.5c0,1.1,0.9,2,2,2h5.7c1.1,0,2,0.9,2,2V185.2z"/>
			<path class="st5" d="M171.7,123.5c1.1,0,1.9,0.9,1.6,2l-7.2,38c-0.2,1.1-0.4,2.9-0.4,4v17.6c0,1.1-0.9,2-2,2h-6.1
				c-1.1,0-2-0.9-2-2v-17.6c0-1.1-0.2-2.9-0.4-4l-7.2-38c-0.2-1.1,0.5-2,1.6-2h6.2c1.1,0,2.1,0.9,2.3,2l2.6,20.2
				c0.1,1.1,0.3,2,0.4,2s0.2-0.9,0.4-2l2.4-20.2c0.1-1.1,1.2-2,2.3-2H171.7z"/>
		</g>
		<g>
			<path class="st5" d="M230.6,185.2c-0.1,1.1-1.1,2-2.2,2h-5.7c-1.1,0-2.1-0.9-2.2-2l-2.6-32.9c-0.1-1.1-0.2-2-0.2-2
				c0,0-0.2,0.9-0.3,2l-2.7,32.9c-0.1,1.1-1.1,2-2.2,2h-5.7c-1.1,0-2.1-0.9-2.2-2l-5.2-59.6c-0.1-1.1,0.7-2,1.9-2h5.9
				c1.1,0,2.1,0.9,2.1,2l1.9,32.9c0.1,1.1,0.2,2,0.2,2c0,0,0.1-0.9,0.2-2l2.3-32.9c0.1-1.1,1.1-2,2.2-2h3.7c1.1,0,2.1,0.9,2.2,2
				l2.4,32.9c0.1,1.1,0.2,2,0.2,2s0.1-0.9,0.2-2l1.8-32.9c0.1-1.1,1-2,2.1-2h5.2c1.1,0,2,0.9,1.9,2L230.6,185.2z"/>
			<path class="st5" d="M256.3,122.8c5.9,0,10.5,1.1,13.8,3.4c3.3,2.2,4.5,7.5,4.5,7.5c0.2,1.1,0.5,2.9,0.5,4V173
				c0,1.1-0.2,2.9-0.5,4c0,0-1.2,5.2-4.5,7.5c-3.3,2.2-7.9,3.4-13.8,3.4c-6,0-10.6-1.1-13.9-3.4c-3.3-2.2-4.5-7.5-4.5-7.5
				c-0.2-1.1-0.5-2.9-0.5-4v-35.3c0-1.1,0.2-2.9,0.5-4c0,0,1.2-5.2,4.5-7.5C245.6,124,250.3,122.8,256.3,122.8z M252.9,132.8
				c-0.1,1.1-0.2,2.9-0.2,4v37.1c0,1.1,0.1,2.9,0.2,4c0,0,0,0.4,0.6,1.1c0.6,0.7,1.5,1,2.7,1c1.1,0,2-0.3,2.6-1
				c0.6-0.7,0.6-1.1,0.6-1.1c0.1-1.1,0.3-2.9,0.3-4v-37.1c0-1.1-0.1-2.9-0.3-4c0,0,0-0.4-0.6-1.1c-0.6-0.7-1.5-1-2.6-1
				c-1.2,0-2.1,0.3-2.7,1C253,132.4,252.9,132.8,252.9,132.8z"/>
			<path class="st5" d="M279.6,125.6c0-1.1,0.9-2,2-2h6.9c1.1,0,2.2,0.9,2.4,2l4.7,27.9c0.2,1.1,0.4,2,0.4,2s0.1-0.9,0.1-2v-27.9
				c0-1.1,0.9-2,2-2h4.8c1.1,0,2,0.9,2,2v59.6c0,1.1-0.9,2-2,2h-5.1c-1.1,0-2.2-0.9-2.4-2l-6.5-33.3c-0.2-1.1-0.4-2-0.5-2
				c0,0-0.1,0.9-0.1,2v33.2c0,1.1-0.9,2-2,2h-4.8c-1.1,0-2-0.9-2-2V125.6z"/>
			<path class="st5" d="M316.6,123.5c1.1,0,2,0.9,2,2v6.8c0,1.1-0.2,2.9-0.4,4c0,0-0.5,2.6-2.1,4c-1.7,1.4-4.8,1.9-4.8,1.9
				c-1.1,0.2-2.2,0.3-2.4,0.3s-0.4-0.9-0.4-2v-0.7c0-1.1,0.2-2,0.4-2s1.3-0.1,2.4-0.2c0,0,0.1,0,0.7-0.5c0.6-0.5,0.6-0.5,0.6-0.5
				c0.2-1-0.6-1.8-1.7-1.8h-0.3c-1.1,0-2-0.9-2-2v-7.1c0-1.1,0.9-2,2-2H316.6z"/>
			<path class="st5" d="M343,123.5c1.1,0,2,0.9,2,2v4.4c0,1.1-0.9,2-2,2h-2.7c-1.1,0-2,0.9-2,2v51.2c0,1.1-0.9,2-2,2h-6.2
				c-1.1,0-2-0.9-2-2V134c0-1.1-0.9-2-2-2h-2.7c-1.1,0-2-0.9-2-2v-4.4c0-1.1,0.9-2,2-2H343z"/>
		</g>
		<g>
			<path class="st5" d="M386.3,163.2c-0.9,0-1.6,0.9-1.6,2v19.9c0,1.1-0.9,2-2,2h-6.2c-1.1,0-2-0.9-2-2v-59.6c0-1.1,0.9-2,2-2h9.4
				c1.1,0,2.9,0.1,4,0.3c0,0,4.6,0.7,6.7,2.9c2.1,2.1,2.8,6.9,2.8,6.9c0.2,1.1,0.3,2.9,0.3,4v11.6c0,1.1-0.1,2.9-0.3,4
				c0,0-0.7,4.7-2.8,6.8c-2.1,2.1-6.7,2.8-6.7,2.8C388.8,163,387.1,163.2,386.3,163.2z M385.9,131.2c-0.6,0-1.1,0.9-1.1,2v20.3
				c0,1.1,0.5,2,1.1,2c0.6,0,1.8-0.2,2.5-0.4c0,0,0,0,0.4-0.7c0.4-0.7,0.4-1.2,0.4-1.2c0.1-1.1,0.2-2.9,0.2-4.1v-11.6
				c0-1.1-0.1-2.9-0.2-4.1c0,0,0-0.6-0.4-1.3c-0.4-0.7-0.4-0.7-0.4-0.7C387.6,131.3,386.5,131.2,385.9,131.2z"/>
			<path class="st5" d="M421.8,185.2c0,1.1-0.9,2-2,2h-14.9c-1.1,0-2-0.9-2-2v-59.6c0-1.1,0.9-2,2-2h6.2c1.1,0,2,0.9,2,2v51.2
				c0,1.1,0.9,2,2,2h4.6c1.1,0,2,0.9,2,2V185.2z"/>
			<path class="st5" d="M425.1,187.2c-1.1,0-1.9-0.9-1.8-2l7.2-59.6c0.1-1.1,1.2-2,2.3-2h7.8c1.1,0,2.1,0.9,2.3,2l7.2,59.6
				c0.1,1.1-0.7,2-1.8,2h-6c-1.1,0-2.1-0.9-2.2-2l-0.8-9.8c-0.1-1.1-1.1-2-2.2-2h-1.3c-1.1,0-2.1,0.9-2.2,2l-0.8,9.8
				c-0.1,1.1-1.1,2-2.2,2H425.1z M436.3,140.8c-0.1,0-0.2,0.9-0.3,2l-0.5,7c-0.1,1.1-0.2,2.9-0.3,4l-0.7,9c-0.1,1.1,0.7,2,1.8,2
				s1.9-0.9,1.8-2l-0.8-9c-0.1-1.1-0.2-2.9-0.3-4l-0.5-7C436.5,141.7,436.4,140.8,436.3,140.8z"/>
			<path class="st5" d="M471.9,123.5c1.1,0,1.9,0.9,1.6,2l-7.2,38c-0.2,1.1-0.4,2.9-0.4,4v17.6c0,1.1-0.9,2-2,2h-6.1
				c-1.1,0-2-0.9-2-2v-17.6c0-1.1-0.2-2.9-0.4-4l-7.2-38c-0.2-1.1,0.5-2,1.6-2h6.2c1.1,0,2.1,0.9,2.3,2l2.6,20.2
				c0.1,1.1,0.3,2,0.4,2c0.1,0,0.2-0.9,0.4-2l2.4-20.2c0.1-1.1,1.2-2,2.3-2H471.9z"/>
		</g>
		<g>
			<path class="st5" d="M525.4,137.6c1.1,0,2.6,0.7,3.3,1.6l24.4,30.7c0.7,0.9,0.4,1.6-0.8,1.6H534c-1.1,0-2.6-0.7-3.3-1.6l-2.9-3.6
				c-0.7-0.9-2.2-1.6-3.3-1.6H507c-1.1,0-2.5,0.8-3.2,1.7l-2.3,3.4c-0.6,0.9-2,1.7-3.2,1.7h-4.9c-1.1,0-1.5-0.8-0.9-1.7l20.2-30.5
				c0.6-0.9,2-1.7,3.2-1.7H525.4z M516.1,151.5c-0.7-0.9-1.8-0.8-2.4,0.1l-5.3,8c-0.6,0.9-0.2,1.7,0.9,1.7h12.6
				c1.1,0,1.5-0.7,0.8-1.6L516.1,151.5z"/>
		</g>
		<path class="st5" d="M556.7,185.2c0,1.1-0.9,2-2,2h-64.4c-1.1,0-2-0.9-2-2v-6.3c0-1.1,0.9-2,2-2h64.4c1.1,0,2,0.9,2,2V185.2z"/>
		<path class="st5" d="M556.7,131.6c0,1.1-0.9,2-2,2h-64.4c-1.1,0-2-0.9-2-2v-6c0-1.1,0.9-2,2-2h64.4c1.1,0,2,0.9,2,2V131.6z"/>
	</g>
	<g class="st4">
		<path class="st5" d="M566.4,327.2c-0.4-0.3-1.2-0.3-1.6,0l-3.5,2.5c-0.4,0.3-0.7,0.2-0.5-0.4l1.3-4.1c0.2-0.5-0.1-1.2-0.5-1.5
			l-2.9-3.4c-0.4-0.3-0.4-0.6,0.2-0.6l3.8,0.9c0.5,0,1.1-0.4,1.3-1l1.6-3.2c0.2-0.5,0.5-0.5,0.6,0l1.1,3.2c0.2,0.5,0.8,1,1.3,1
			l4.3,0c0.5,0,0.6,0.3,0.2,0.6l-3.5,2.5c-0.4,0.3-0.7,1-0.5,1.5l1.4,3.2c0.2,0.5-0.1,0.7-0.5,0.4L566.4,327.2z"/>
	</g>
</g>
</svg>
