<?xml version="1.0" encoding="utf-8"?>
<!-- Generator: Adobe Illustrator 24.3.0, SVG Export Plug-In . SVG Version: 6.00 Build 0)  -->
<svg version="1.1" xmlns="http://www.w3.org/2000/svg" xmlns:xlink="http://www.w3.org/1999/xlink" x="0px" y="0px" width="400px"
	 height="300px" viewBox="0 0 400 300" style="enable-background:new 0 0 400 300;" xml:space="preserve">
<style type="text/css">
	.st0{fill:none;stroke:#2D2724;stroke-linejoin:round;}
	.st1{fill:#78695E;stroke:#F6EFE9;stroke-width:2;stroke-miterlimit:10;}
</style>
<g id="Layer_1">
	<path class="st0" d="M385.7,66.9l-2.1-2.8l-2.2-0.1l-1.1-3l-2-0.2l-3.7-11.9l-3.3-1.6l-3.6,2.7l-2.6-1.9l-2.6,7.8l-0.1,9L361,70
		l-1.7-0.2l-1.8,3.2l-11.3,2.8l-9,2.2l-2.9,2.1l-5.2,8.4l2,4.1l-4.3,3.6l-3.6,1.1l-3.9-0.6l-6,2.2l2.2,4.1l-5.1,5.4l-4.5,3.4
		l-5.2,3.2l-2.1,2.6l-4.9,1.7l-6.8-2.3l1.5-5l3.8-7.3l-2.5-7.1l-2.1-1.9l-4.5,4.8l-1.8-2.7l3.2-4.1l-0.4-6.2l-1.7-2.7l-8.6-2.9
		l-2,2.2l1.5,1.4l-2.8,1.5l-4.9,5.5l-0.8,10.4l2.6,4.9l0.4,3.7l-2,6.5l-1.3,1.3l-4.8,0.9l-2.3-4.4v-2.4l-1.3-7.7l1.6-10.3l2.5-5.7
		l-5.2,5.4L255,93l2.3-3.4l3-6.9l3,0.5l1.4-1.9l5.2-2l4.8,1.8l5-2l-2.5-1.8l0.4-2.3l-5.7,0.4l0.4-2.4l-7.4,1.9l-2.9,2l-4.6-0.1
		l-1.5-2.5l-4.1-0.8v-2.5l2.9-2l-4.1,0.6l-5.6,5l-6.2,3h-3.4l0.5-3.3l-7.1,2.6l-0.5-0.6l8.4-8.3l6.5-3.4l-7.4-0.5l-0.5-1.3l-4.3,2
		l-3.2-2.6l-6.9-2.4l-3.7,0.3l-5.2-1.2l-0.9-4.8L209,54v3.4l-12.4-0.1l-21.9-0.7L156,55.2l-11.4-1l-21-2.7l-13.8-2.1l-24.6-4.7
		l-5.8-1.3l-12.1-2.9L46.2,35l1.1,2.6l-0.2,6.7l-4,6l2-5.3l-0.5-2.1l-7.1-2.8l-4-3.3l-0.8,13.5l1.4,2.2l-2.1,3.3l2.9,1.3l-2.8,0.5
		l-2.9,8.7L24.7,77l-5.1,7.8l-0.2,7.7l-0.1,5.1l-1.7,3.8l-3.4,4.5l2.2,7.1l-1.7,7.1l3.4,8.1l3.7,7.1l-2.4-0.5l-0.1,2.9l3.1,3.3
		l-1.7,5.8l2.6,6.3l3.3,5.7l-1.3,5.1l1,1.2l6.3,2.1l2.4,3.5l4,1.6l0.4,2.9l2.6,0.9l4.2,6.6l0.2,5.2l18,2.1l-1.2,1.9L88.8,207
		l15.8,2.3l6.2,0.9l0.5-4l12.8,1.5l6.5,7.9l4.2,3.2l1.9,4.1l0.6,5.2l2.9,2.8l7.8,4.2l3.9-6.4l4.3-0.3l5.8,0.9l5.2,5.8l0.2,1.9
		l5.5,10.2l2.8,1.9l0.4,5.1l2.7,5.6l7.5,3.4l8.1,0.9l-3.1-7.7l2.5-7.7l1.7-3.4l6.9-5.5l1.4,1l5.1-2.6l3.7-3.9l-0.6-3.4l2-1l0.8,2.8
		l6.1-2.1l5.1-0.9l6.7,2l3.9-2.7l3.9,4.3l4.1,2.2l1.9-2.2l3.4,1.3l1-3.3l7,3.7l1-2.1l-5.5-2.2l0.1-2.2l3.1-1.1l-4.9-1.1l2.7-1.8
		l5.2-2.4l3.3,0.1l2.3,0.1v-2.8l2.8,3.2l2-0.3l6.5-1.7l5.6,0.9l7.7,3.8l5.2-4.1l5.2,1.3l5.3,6.2l1.9-0.5l2,5.8l-0.6,6l3.5-0.3
		l-2.2,3l6.1,8.2l1.8,0.3l1.8,4l3.7,0.8l2.4,5.3l5.9-1.8l1.5-5.1l-1-9.4l-6-10.3l-0.7-4.3l-3.9-4.4l-3.1-4.8l-2.7-8.4l-0.4-3.9
		l2.6-8.6l11.1-12.1l1.7-5.6l1.9-1.3l4.2-0.8l0.6-3.8l3.8-4.2l4.7-0.9l1.4-3.8l-3.8,1.5l1.4-4l2.3-0.5l2.5-3.1l-1.7-3.1l-5.7,1.5
		l4.2-2.8l0.5-3.8l-1.5-3.1l-2.3-1l-1.3-7.2l-3.2-1.8l-4.8-0.7l0.4-2.9v2.5l6.4,1.5l-2.8-5.9l1.3-4.8l1.6,5.1v3.4l4.9,2.3l-1.3,3.8
		l0.7,4.2l1.6-6l1.8-3.5l0.4-3.9l-0.9-3l-2.8-1.9l-1.3-3.7l0.7,1l4.1,1.1l0.7,1.7l3.4-8.3l-1.4-7.6l6.3-2l5.3-4.4l-10,2.6l4.3-3.8
		l6.6-2l2.5-1.2l0.8-3.4l0.1,0.4l0.9,1.4l2-2.8l1.1,1.3l4.4-2.2h-4.2l-2.2-3.3l-2-0.1l-0.3-5.5l0.2-1.8l2-5.2l5.7-6.2l-0.3-3.4
		l3.4,0.9L385.7,66.9z"/>
</g>
<g id="Austin">
	<path class="st1" d="M193,225.6c-4.7,0-8.5-3.8-8.5-8.5c0-4.7,3.8-8.5,8.5-8.5c4.7,0,8.5,3.8,8.5,8.5
		C201.5,221.8,197.7,225.6,193,225.6z"/>
</g>
<g id="Charlotte">
	<path class="st1" d="M311.6,191c-4.7,0-8.5-3.8-8.5-8.5c0-4.7,3.8-8.5,8.5-8.5c4.7,0,8.5,3.8,8.5,8.5
		C320.1,187.2,316.3,191,311.6,191z"/>
</g>
<g id="Chicago">
	<path class="st1" d="M257.3,125.1c-4.7,0-8.5-3.8-8.5-8.5c0-4.7,3.8-8.5,8.5-8.5c4.7,0,8.5,3.8,8.5,8.5
		C265.8,121.3,262,125.1,257.3,125.1z"/>
</g>
<g id="Cincinnati">
	<path class="st1" d="M282.9,154c-4.7,0-8.5-3.8-8.5-8.5c0-4.7,3.8-8.5,8.5-8.5c4.7,0,8.5,3.8,8.5,8.5
		C291.4,150.1,287.6,154,282.9,154z"/>
</g>
<g id="Dallas">
	<path class="st1" d="M204.5,205.3c-4.7,0-8.5-3.8-8.5-8.5c0-4.7,3.8-8.5,8.5-8.5c4.7,0,8.5,3.8,8.5,8.5
		C213.1,201.5,209.2,205.3,204.5,205.3z"/>
</g>
<g id="Greensboro">
	<path class="st1" d="M320,181.2c-4.7,0-8.5-3.8-8.5-8.5c0-4.7,3.8-8.5,8.5-8.5c4.7,0,8.5,3.8,8.5,8.5
		C328.5,177.4,324.7,181.2,320,181.2z"/>
</g>
<g id="Houston">
	<path class="st1" d="M213.1,240.6c-4.7,0-8.5-3.8-8.5-8.5c0-4.7,3.8-8.5,8.5-8.5c4.7,0,8.5,3.8,8.5,8.5
		C221.6,236.8,217.7,240.6,213.1,240.6z"/>
</g>
<g id="Indianapolis">
	<path class="st1" d="M269.2,142.1c-4.7,0-8.5-3.8-8.5-8.5c0-4.7,3.8-8.5,8.5-8.5c4.7,0,8.5,3.8,8.5,8.5
		C277.7,138.3,273.9,142.1,269.2,142.1z"/>
</g>
<g id="KansasCity">
	<path class="st1" d="M221.6,159.5c-4.7,0-8.5-3.8-8.5-8.5c0-4.7,3.8-8.5,8.5-8.5c4.7,0,8.5,3.8,8.5,8.5
		C230.1,155.7,226.3,159.5,221.6,159.5z"/>
</g>
<g id="LosAngeles">
	<path class="st1" d="M37.6,181.2c-4.7,0-8.5-3.8-8.5-8.5c0-4.7,3.8-8.5,8.5-8.5c4.7,0,8.5,3.8,8.5,8.5
		C46.1,177.4,42.3,181.2,37.6,181.2z"/>
</g>
<g id="Nashville">
	<path class="st1" d="M269.2,176.5c-4.7,0-8.5-3.8-8.5-8.5c0-4.7,3.8-8.5,8.5-8.5c4.7,0,8.5,3.8,8.5,8.5
		C277.7,172.6,273.9,176.5,269.2,176.5z"/>
</g>
<g id="Philadelphia">
	<path class="st1" d="M345.1,132.6c-4.7,0-8.5-3.8-8.5-8.5c0-4.7,3.8-8.5,8.5-8.5c4.7,0,8.5,3.8,8.5,8.5
		C353.7,128.8,349.8,132.6,345.1,132.6z"/>
</g>
<g id="Tampa">
	<path class="st1" d="M311.5,249.1c-4.7,0-8.5-3.8-8.5-8.5c0-4.7,3.8-8.5,8.5-8.5c4.7,0,8.5,3.8,8.5,8.5
		C320,245.3,316.1,249.1,311.5,249.1z"/>
</g>
<g id="WashingtonDC">
	<path class="st1" d="M336.6,145.5c-4.7,0-8.5-3.8-8.5-8.5c0-4.7,3.8-8.5,8.5-8.5c4.7,0,8.5,3.8,8.5,8.5
		C345.1,141.7,341.3,145.5,336.6,145.5z"/>
</g>
<g id="SanAntonio">
	<path class="st1" d="M185.4,233.1c-4.7,0-8.5-3.8-8.5-8.5c0-4.7,3.8-8.5,8.5-8.5c4.7,0,8.5,3.8,8.5,8.5
		C194,229.3,190.1,233.1,185.4,233.1z"/>
</g>
</svg>
